PathFileType	4	(X/Y/Z)	Kaydara																																																																																																																																																																																																																												
DataRate	CameraRate	NumFrames	NumMarkers	Units	OrigDataRate	OrigDataStartFrame	OrigNumFrames																																																																																																																																																																																																																								
60	60	4	74	mm	60	1478	294																																																																																																																																																																																																																								
Frame#	Time	N_lasi			N_rasi			N_rpsi			N_lpsi			N_fneck			N_bneck			N_fhead			N_rhead			N_lhead			N_rshld			N_relbtop			N_relbext			N_relblow			N_rwrext			N_rwrtop			N_rwrlow			N_lshld			N_lelblow			N_lelbtop			N_lwrext			N_lwrtop			N_lwrlow			N_rtopleg			N_ltopleg			N_rkneefr			N_rkneebk			N_rkneeis			N_lkneefr			N_lknssbk			N_lkneeis			N_rankfr			N_rankis			N_rankbk			N_lankfr			N_lankbk			N_lankis			D_lasi			D_rasi			D_lpsi			D_fneck			D_bneck			D_fhead			D_rhead			D_lhead			D_rshld			D_relbtop			D_relbext			D_relblow			D_rwrext			D_rwrtop			D_rwrlow			D_lshld			D_lelbext			D_lelblow			D_lelbtop			D_lwrext			D_lwrtop			D_lwrlow			D_rtopleg			D_ltopleg			D_rkneefr			D_rkneebk			D_rkneeis			D_lkneefr			D_lknssbk			D_lkneeis			D_rankfr			D_rankis			D_rankbk			D_lankfr			D_lankbk			D_lankis			D_rpsi			N_lelbext		
		X1	Y1	Z1	X2	Y2	Z2	X3	Y3	Z3	X4	Y4	Z4	X5	Y5	Z5	X6	Y6	Z6	X7	Y7	Z7	X8	Y8	Z8	X9	Y9	Z9	X10	Y10	Z10	X11	Y11	Z11	X12	Y12	Z12	X13	Y13	Z13	X14	Y14	Z14	X15	Y15	Z15	X16	Y16	Z16	X17	Y17	Z17	X18	Y18	Z18	X19	Y19	Z19	X20	Y20	Z20	X21	Y21	Z21	X22	Y22	Z22	X23	Y23	Z23	X24	Y24	Z24	X25	Y25	Z25	X26	Y26	Z26	X27	Y27	Z27	X28	Y28	Z28	X29	Y29	Z29	X30	Y30	Z30	X31	Y31	Z31	X32	Y32	Z32	X33	Y33	Z33	X34	Y34	Z34	X35	Y35	Z35	X36	Y36	Z36	X37	Y37	Z37	X38	Y38	Z38	X39	Y39	Z39	X40	Y40	Z40	X41	Y41	Z41	X42	Y42	Z42	X43	Y43	Z43	X44	Y44	Z44	X45	Y45	Z45	X46	Y46	Z46	X47	Y47	Z47	X48	Y48	Z48	X49	Y49	Z49	X50	Y50	Z50	X51	Y51	Z51	X52	Y52	Z52	X53	Y53	Z53	X54	Y54	Z54	X55	Y55	Z55	X56	Y56	Z56	X57	Y57	Z57	X58	Y58	Z58	X59	Y59	Z59	X60	Y60	Z60	X61	Y61	Z61	X62	Y62	Z62	X63	Y63	Z63	X64	Y64	Z64	X65	Y65	Z65	X66	Y66	Z66	X67	Y67	Z67	X68	Y68	Z68	X69	Y69	Z69	X70	Y70	Z70	X71	Y71	Z71	X72	Y72	Z72	X73	Y73	Z73	X74	Y74	Z74
																																																																																																																																																																																																																															
221	24.617	-537.6469	1242.2097	-87.07258	-511.38996	1249.32884	-317.44379	-229.09437	1218.33008	-358.33626	-278.63705	1222.63573	-5.66042	-378.88664	1609.31015	-179.99727	-240.19938	1665.32288	-192.82597	-436.05179	1806.4325	-193.46785	-245.5921	1772.82242	-253.9097	-292.76178	1776.64886	-105.13391	-272.47705	1537.2699	-444.29214	-218.15065	1227.15027	-462.36946	-289.06418	1141.54739	-451.22551	-308.75143	1227.53738	-464.6101	-240.61859	906.76338	-480.35683	-286.10769	896.93436	-492.54265	-315.02438	911.47537	-456.91097	-260.59826	1607.82013	12.36597	-272.15637	1587.29218	267.22061	-290.75109	1505.67093	299.15634	-375.24254	1828.47885	374.61082	-334.07566	1842.1225	394.17263	-303.70529	1833.43445	348.67931	-409.96132	1045.1725	-443.722	-377.07138	1017.76138	42.14599	-429.72588	562.15038	-261.99326	-322.97455	578.64033	-329.33865	-368.43845	564.93408	-168.55404	-381.94168	539.47247	-103.2718	-256.58092	556.28136	-42.05997	-256.09585	547.53838	-191.77378	-296.25662	139.50399	-271.61581	-298.46552	154.33668	-191.90598	-216.69867	141.71858	-216.2978	-332.59941	192.99397	-119.64918	-259.92947	186.0367	-76.23101	-295.92947	165.0367	-160.23101	-465.68184	1036.3916	1743.8945	-429.20471	1054.40002	1458.19382	-271.19925	1135.23293	1747.13638	-426.04782	1566.5155	1597.18506	-288.30389	1596.32813	1606.8721	-471.08158	1775.28656	1601.28937	-307.26816	1735.68573	1526.42624	-317.38703	1732.37885	1681.008	-331.00971	1566.58722	1457.53357	-341.42059	1470.92697	1172.79114	-417.29729	1487.02667	1184.71451	-327.80693	1556.09146	1179.12979	-363.74527	1525.34286	921.47202	-383.20545	1578.1076	933.45627	-431.28864	1552.9892	940.8474	-348.94611	1561.72165	1785.88684	-433.72654	1481.79474	2049.89304	-340.91747	1535.74677	2041.98242	-355.99632	1458.78571	2056.67603	-384.53789	1528.88687	2302.31689	-412.67002	1560.68405	2292.4411	-455.68035	1535.61584	2282.7121	-334.98188	1004.95605	1411.53534	-323.68721	1011.18561	1811.73187	-372.32357	455.6736	1452.20169	-272.47295	491.62582	1424.48837	-279.69961	458.60287	1545.00931	-355.71243	448.91048	1771.91589	-243.589	486.63715	1789.24896	-314.05451	444.91535	1680.76309	-323.7114	130.93925	1418.35846	-294.8255	126.7685	1482.77618	-243.55642	128.19287	1418.61084	-323.25512	135.35502	1792.63519	-250.8152	125.02211	1807.46613	-293.46615	124.70119	1733.47137	-243.86021	1151.36986	1529.07623	-364.69185	1551.05194	274.63551
222	24.633	-537.57393	1242.09564	-87.00637	-511.34468	1249.26888	-317.33158	-229.08415	1218.1871	-358.0875	-278.57294	1222.62985	-5.56555	-378.81851	1609.3248	-179.80083	-240.13121	1665.33752	-192.62955	-436.12759	1806.28281	-193.34116	-245.6122	1772.8476	-253.82381	-292.80872	1776.698	-104.96141	-272.37244	1537.22794	-444.05769	-218.02696	1227.15378	-462.33974	-288.78666	1141.48125	-451.17649	-308.63626	1227.50854	-464.64512	-240.75148	906.70898	-480.39864	-286.26448	896.91399	-492.48665	-315.11909	911.46439	-456.86619	-260.55779	1607.82867	12.48187	-272.61589	1587.06573	267.35844	-290.98341	1505.4895	299.17337	-376.53957	1828.00491	374.77619	-335.12745	1841.70273	394.42879	-304.8455	1833.21548	348.97614	-409.90723	1045.1358	-443.62732	-376.96232	1017.68494	42.25087	-429.79698	562.15263	-261.88347	-323.04844	578.63705	-329.23618	-368.50315	564.91333	-168.41728	-381.90788	539.5084	-103.20226	-256.50146	556.24168	-41.9986	-256.10399	547.51621	-191.73498	-296.2702	139.48181	-271.59725	-298.48711	154.34704	-191.82961	-216.62931	141.74643	-216.33253	-332.58244	193.01313	-119.63203	-259.82128	186.04145	-76.27609	-295.82128	165.04145	-160.27609	-465.79388	1036.22795	1743.55927	-429.09958	1054.34586	1457.8508	-271.41003	1135.22461	1747.03537	-426.9944	1566.41937	1597.54822	-289.24776	1596.42883	1607.06223	-471.79554	1775.32639	1601.67938	-308.36248	1735.45349	1525.2562	-318.2358	1732.30255	1681.37054	-331.47594	1565.20935	1456.65466	-337.51022	1464.22119	1173.64044	-414.05685	1479.94339	1184.07372	-324.63707	1549.59412	1178.35793	-356.46927	1513.25256	920.71342	-376.38348	1565.79285	931.72874	-424.48086	1540.53543	938.63228	-349.70852	1561.12167	1786.95114	-431.15196	1477.08984	2050.80612	-338.69427	1531.56403	2042.49969	-353.75919	1454.24927	2056.32156	-377.98492	1519.702	2303.38547	-406.41335	1551.44745	2294.58389	-449.09725	1526.27548	2285.21118	-334.86126	1004.91661	1411.28296	-323.72734	1011.24535	1811.8515	-372.27291	455.74566	1452.01157	-272.46964	491.61366	1424.35471	-279.73028	458.56762	1544.82544	-355.79308	448.88054	1771.77582	-243.63615	486.65047	1789.07669	-314.08142	444.89758	1680.58533	-323.70007	130.90091	1418.26553	-294.80633	126.76222	1482.72141	-243.54683	128.12024	1418.59665	-323.31669	135.32835	1792.54639	-250.80364	125.03928	1807.44278	-293.47811	124.67371	1733.4848	-243.91857	1151.40549	1529.03656	-364.93397	1550.7193	274.5388
223	24.65	-537.42687	1242.03369	-86.86205	-511.31733	1249.22806	-317.18483	-229.02664	1218.04504	-357.79213	-278.42312	1222.55554	-5.44317	-378.73573	1609.34998	-179.58235	-240.04845	1665.3627	-192.41104	-436.14269	1806.12503	-193.25216	-245.47297	1772.36923	-253.41677	-292.84332	1776.7894	-104.75558	-272.35384	1537.25677	-443.72837	-217.87415	1227.22343	-462.26803	-288.43586	1141.49101	-451.11145	-308.40363	1227.56577	-464.6899	-240.82951	906.70441	-480.45387	-286.38512	896.95946	-492.44934	-315.17584	911.52847	-456.82018	-260.25297	1607.82837	12.69476	-273.15357	1586.97662	267.43755	-291.46435	1505.3421	299.15548	-377.70981	1827.69455	374.90475	-336.32122	1841.38626	394.65981	-305.84705	1833.14697	349.2466	-409.95487	1045.13199	-443.49777	-376.83239	1017.64091	42.32373	-429.85939	562.14783	-261.76508	-323.14774	578.63708	-329.16412	-368.43853	564.90864	-168.34442	-381.71452	539.45724	-103.01842	-256.32143	556.24634	-41.99506	-256.12795	547.47429	-191.68921	-296.31573	139.47678	-271.55169	-298.50109	154.32137	-191.78001	-216.7491	141.6978	-216.27087	-332.58564	193.0138	-119.56807	-259.8167	186.01978	-76.2578	-295.8167	165.01978	-160.2578	-466.01372	1036.18202	1743.21808	-429.11144	1054.29031	1457.54898	-271.5029	1135.31158	1746.75461	-427.68291	1566.36551	1598.02872	-290.15312	1596.52466	1607.09335	-472.6054	1775.44281	1602.22137	-309.05174	1735.58487	1526.02509	-319.01695	1732.25876	1681.75293	-331.76117	1563.965	1455.89462	-334.12823	1458.23486	1174.45557	-410.29186	1473.70361	1183.35052	-321.41556	1543.60504	1177.53937	-349.07475	1502.20535	920.13817	-369.59877	1554.67972	930.07942	-417.62966	1529.0155	936.42609	-350.08522	1560.68954	1787.50519	-428.67985	1473.09158	2051.41846	-336.22322	1527.62268	2043.03497	-351.36921	1449.92661	2055.73395	-371.71219	1510.77103	2304.01505	-400.09918	1542.86621	2296.28922	-443.18836	1518.13507	2287.09488	-334.88201	1004.90967	1411.0437	-323.84079	1011.22101	1811.54037	-372.1574	455.65407	1451.78238	-272.46847	491.5815	1424.14413	-279.6825	458.5976	1544.64508	-355.85983	448.87466	1771.61545	-243.65999	486.57883	1788.88763	-314.11283	444.85901	1680.40009	-323.70041	130.87575	1418.2431	-294.79162	126.75473	1482.67349	-243.51061	128.09224	1418.4938	-323.34896	135.34464	1792.5119	-250.81844	125.04219	1807.33292	-293.51807	124.68472	1733.42255	-244.2338	1151.4283	1528.80157	-365.40268	1550.49515	274.39108
224	24.667	-537.18006	1241.96304	-86.67924	-511.32771	1249.22218	-316.99688	-228.9411	1217.90726	-357.47047	-278.2513	1222.4675	-5.32177	-378.67493	1609.39377	-179.21709	-239.98764	1665.40649	-192.04578	-436.13598	1806.03424	-193.12428	-245.34067	1772.61185	-253.34583	-292.90979	1776.93695	-104.49905	-272.44196	1537.35855	-443.40397	-217.76913	1227.3307	-462.16347	-288.12216	1141.5332	-451.00246	-308.19742	1227.64992	-464.67964	-240.84408	906.73309	-480.4533	-286.43814	897.01286	-492.43591	-315.18177	911.57616	-456.7733	-260.21885	1607.65076	12.69341	-273.84775	1586.92123	267.54293	-292.20165	1505.20569	299.14581	-378.68694	1827.49542	374.92195	-337.54803	1841.24344	394.81655	-306.95164	1833.07953	349.47479	-410.05226	1045.18394	-443.42369	-376.63395	1017.54173	42.36775	-429.98722	562.14592	-261.64448	-323.2782	578.6385	-329.08131	-368.43697	564.87495	-168.25701	-381.61335	539.46991	-102.86708	-256.12179	556.27594	-42.0149	-256.16901	547.46834	-191.70324	-296.37857	139.46965	-271.50213	-298.5261	154.32986	-191.70622	-216.71532	141.71562	-216.29288	-332.57168	193.03144	-119.47204	-259.70535	186.01809	-76.25838	-295.70535	165.01809	-160.25838	-466.33198	1036.25122	1742.95776	-429.3116	1054.22501	1457.23526	-271.63921	1135.33066	1746.36993	-428.38989	1566.41052	1598.38806	-290.7658	1596.71326	1607.00104	-473.38318	1775.4303	1602.88727	-309.90173	1735.69122	1526.70013	-319.62132	1732.14325	1682.10983	-331.71417	1562.70599	1454.97375	-331.01341	1452.8334	1175.25513	-407.09702	1468.29254	1182.63855	-318.40078	1538.34686	1176.68663	-341.67301	1492.09778	920.05341	-363.1908	1544.55429	928.7989	-410.91019	1518.36975	934.52789	-351.07601	1560.26657	1788.26813	-426.49921	1469.832	2052.07764	-333.74802	1524.05899	2043.58383	-349.13216	1446.33514	2055.18158	-365.93666	1502.76642	2304.70001	-394.12785	1535.10605	2297.66235	-437.52541	1510.79544	2288.45749	-335.08419	1004.92134	1410.6839	-323.91094	1011.21483	1811.30951	-372.19494	455.67131	1451.74255	-272.49897	491.58737	1423.96698	-279.66568	458.62984	1544.48349	-355.86708	448.83526	1771.42654	-243.6146	486.54491	1788.62885	-314.1181	444.81129	1680.16754	-323.67844	130.91067	1418.13721	-294.77093	126.79253	1482.57996	-243.49361	128.07012	1418.42911	-323.32779	135.36868	1792.44049	-250.81938	125.04454	1807.29645	-293.49628	124.61855	1733.32947	-244.55946	1151.47583	1528.45474	-365.86906	1550.33813	274.09809
